<svg width="16" height="10" viewBox="0 0 16 10" fill="none" xmlns="http://www.w3.org/2000/svg">
<path d="M0.799767 9.80811H3.99884C4.21095 9.80811 4.41438 9.72384 4.56436 9.57386C4.71435 9.42387 4.79861 9.22045 4.79861 9.00834C4.79861 8.79623 4.71435 8.5928 4.56436 8.44282C4.41438 8.29283 4.21095 8.20857 3.99884 8.20857H2.72721L6.79803 4.13775L8.86943 6.20915C9.16912 6.50706 9.57453 6.67428 9.9971 6.67428C10.4197 6.67428 10.8251 6.50706 11.1248 6.20915L15.7634 1.57849C15.8384 1.50414 15.8979 1.41569 15.9385 1.31823C15.9791 1.22077 16 1.11623 16 1.01066C16 0.905077 15.9791 0.800543 15.9385 0.703084C15.8979 0.605625 15.8384 0.51717 15.7634 0.442822C15.6891 0.367861 15.6006 0.308361 15.5032 0.267757C15.4057 0.227154 15.3012 0.20625 15.1956 0.20625C15.09 0.20625 14.9855 0.227154 14.888 0.267757C14.7906 0.308361 14.7021 0.367861 14.6278 0.442822L9.9971 5.08148L7.9257 3.01008C7.62601 2.71216 7.2206 2.54494 6.79803 2.54494C6.37545 2.54494 5.97005 2.71216 5.67036 3.01008L1.59954 7.0809V5.80926C1.59954 5.59715 1.51528 5.39373 1.36529 5.24374C1.2153 5.09376 1.01188 5.0095 0.799767 5.0095C0.587656 5.0095 0.384231 5.09376 0.234245 5.24374C0.08426 5.39373 0 5.59715 0 5.80926V9.00834C0 9.22045 0.08426 9.42387 0.234245 9.57386C0.384231 9.72384 0.587656 9.80811 0.799767 9.80811Z" fill="#D03201"/>
</svg>
