<svg width="16" height="10" viewBox="0 0 16 10" fill="none" xmlns="http://www.w3.org/2000/svg">
<path d="M15.2002 0.206299H12.0012C11.789 0.206299 11.5856 0.29056 11.4356 0.440546C11.2857 0.590531 11.2014 0.793955 11.2014 1.00607C11.2014 1.21818 11.2857 1.4216 11.4356 1.57159C11.5856 1.72157 11.789 1.80584 12.0012 1.80584H13.2728L9.20197 5.87666L7.13057 3.80526C6.83088 3.50734 6.42547 3.34012 6.0029 3.34012C5.58032 3.34012 5.17492 3.50734 4.87523 3.80526L0.23657 8.43591C0.161609 8.51026 0.102111 8.59872 0.0615077 8.69618C0.0209045 8.79364 0 8.89817 0 9.00375C0 9.10933 0.0209045 9.21386 0.0615077 9.31132C0.102111 9.40878 0.161609 9.49723 0.23657 9.57158C0.310919 9.64654 0.399374 9.70604 0.496833 9.74665C0.594293 9.78725 0.698827 9.80815 0.804405 9.80815C0.909984 9.80815 1.01452 9.78725 1.11198 9.74665C1.20944 9.70604 1.29789 9.64654 1.37224 9.57158L6.0029 4.93293L8.0743 7.00433C8.37399 7.30224 8.7794 7.46946 9.20197 7.46946C9.62455 7.46946 10.03 7.30224 10.3296 7.00433L14.4005 2.93351V4.20514C14.4005 4.41725 14.4847 4.62068 14.6347 4.77066C14.7847 4.92065 14.9881 5.00491 15.2002 5.00491C15.4123 5.00491 15.6158 4.92065 15.7658 4.77066C15.9157 4.62068 16 4.41725 16 4.20514V1.00607C16 0.793955 15.9157 0.590531 15.7658 0.440546C15.6158 0.29056 15.4123 0.206299 15.2002 0.206299Z" fill="#01D015"/>
</svg>
